<svg xmlns="http://www.w3.org/2000/svg" style="display:none" aria-hidden="true">
  <!-- Watery line-icon sprite for GIMS. Reference: <svg class="icon"><use href="/static/icons.svg#i-name"/></svg>
       Geometry only (no fill/stroke) so the .icon class drives stroke=currentColor, fill=none. -->

  <symbol id="i-compass" viewBox="0 0 24 24"><circle cx="12" cy="12" r="9"/><path d="M15.6 8.4 13 13l-4.6 2.6L11 11z"/></symbol>

  <!-- Schemas -->
  <symbol id="i-noun" viewBox="0 0 24 24"><path d="M12 3 21 7.5v9L12 21 3 16.5v-9z"/><path d="M3 7.5 12 12l9-4.5"/><path d="M12 12v9"/></symbol>
  <symbol id="i-adjective" viewBox="0 0 24 24"><path d="M4 4h7l9 9-7 7-9-9z"/><circle cx="8.5" cy="8.5" r="1.3"/></symbol>
  <symbol id="i-verb" viewBox="0 0 24 24"><path d="M13 2.5 4 14h7l-1 7.5L20 10h-7z"/></symbol>
  <symbol id="i-adverb" viewBox="0 0 24 24"><circle cx="12" cy="12" r="8"/><circle cx="12" cy="12" r="3.3"/><path d="M12 1.5v3M12 19.5v3M1.5 12h3M19.5 12h3"/></symbol>
  <symbol id="i-conjunction" viewBox="0 0 24 24"><path d="M9.2 12a3.6 3.6 0 0 1 3.6-3.6h1.6A3.6 3.6 0 0 1 18 12a3.6 3.6 0 0 1-3.6 3.6"/><path d="M14.8 12a3.6 3.6 0 0 1-3.6 3.6H9.6A3.6 3.6 0 0 1 6 12a3.6 3.6 0 0 1 3.6-3.6"/></symbol>

  <!-- Searches -->
  <symbol id="i-investigation" viewBox="0 0 24 24"><circle cx="6" cy="6.2" r="2.3"/><circle cx="18" cy="9" r="2.3"/><circle cx="9.5" cy="18" r="2.3"/><path d="M8.1 7.2 15.7 8.4M7.7 8.2 8.8 15.8"/></symbol>
  <symbol id="i-search" viewBox="0 0 24 24"><circle cx="11" cy="11" r="6.5"/><path d="M20 20l-4.2-4.2"/></symbol>
  <symbol id="i-audit" viewBox="0 0 24 24"><path d="M12 3 5 6v6c0 4.4 3 7.6 7 9 4-1.4 7-4.6 7-9V6z"/><path d="M8.8 12l2.3 2.3L15.5 9.8"/></symbol>
  <symbol id="i-archive" viewBox="0 0 24 24"><rect x="3" y="4.5" width="18" height="4.5" rx="1.2"/><path d="M5 9v9.5a1 1 0 0 0 1 1h12a1 1 0 0 0 1-1V9"/><path d="M10 13h4"/></symbol>

  <!-- Operations -->
  <symbol id="i-runlog" viewBox="0 0 24 24"><rect x="5" y="4" width="14" height="17" rx="2"/><path d="M9 3.5h6v3.2H9z"/><path d="M8.6 11.2h6.8M8.6 15.2h6.8"/></symbol>
  <symbol id="i-grid" viewBox="0 0 24 24"><rect x="3.5" y="3.5" width="7.4" height="7.4" rx="1.4"/><rect x="13.1" y="3.5" width="7.4" height="7.4" rx="1.4"/><rect x="3.5" y="13.1" width="7.4" height="7.4" rx="1.4"/><rect x="13.1" y="13.1" width="7.4" height="7.4" rx="1.4"/></symbol>
  <symbol id="i-sparkle" viewBox="0 0 24 24"><path d="M12 3.5l2 5.3 5.3 2-5.3 2-2 5.3-2-5.3-5.3-2 5.3-2z"/><path d="M18.5 16l.7 2 .8-.7"/></symbol>

  <!-- Tools -->
  <symbol id="i-camera" viewBox="0 0 24 24"><path d="M4 8h3l1.6-2.2h6.8L17 8h3a1 1 0 0 1 1 1v9.5a1 1 0 0 1-1 1H4a1 1 0 0 1-1-1V9a1 1 0 0 1 1-1z"/><circle cx="12" cy="13.2" r="3.4"/></symbol>
  <symbol id="i-parser" viewBox="0 0 24 24"><path d="M14 3H7a2 2 0 0 0-2 2v14a2 2 0 0 0 2 2h10a2 2 0 0 0 2-2V8z"/><path d="M14 3v5h5"/><path d="M10.6 12 9 14l1.6 2M13.4 12 15 14l-1.6 2"/></symbol>
  <symbol id="i-terminal" viewBox="0 0 24 24"><rect x="3" y="4" width="18" height="16" rx="2.2"/><path d="M7 9.5l3 2.5-3 2.5M12.5 15h4.5"/></symbol>

  <!-- Admin -->
  <symbol id="i-template" viewBox="0 0 24 24"><path d="M12 21.5v-7.5"/><path d="M12 14c0-4.2 3.1-7.2 8.2-7.2C20.2 12 17.1 15 12 14z"/><path d="M12 16.2c0-3.1-2.6-5.2-6.2-5.2C5.8 14.6 8.4 16.4 12 16.2z"/></symbol>
  <symbol id="i-key" viewBox="0 0 24 24"><circle cx="8" cy="8" r="4.2"/><path d="M11 11l8.5 8.5M16.5 16.5l2-2M18.5 18.5l2-2"/></symbol>
  <symbol id="i-backup" viewBox="0 0 24 24"><ellipse cx="12" cy="6" rx="7" ry="3"/><path d="M5 6v12c0 1.7 3.1 3 7 3s7-1.3 7-3V6"/><path d="M5 12c0 1.7 3.1 3 7 3s7-1.3 7-3"/></symbol>
  <symbol id="i-compliance" viewBox="0 0 24 24"><path d="M3.5 9 12 4l8.5 5"/><path d="M5.5 9.5v8M9.5 9.5v8M14.5 9.5v8M18.5 9.5v8"/><path d="M3.5 20.5h17"/></symbol>

  <!-- Tests -->
  <symbol id="i-flask" viewBox="0 0 24 24"><path d="M9 3h6M10 3v6.2l-5 8.8a2 2 0 0 0 1.8 3h10.4a2 2 0 0 0 1.8-3l-5-8.8V3"/><path d="M7.6 15h8.8"/></symbol>
  <symbol id="i-robot" viewBox="0 0 24 24"><rect x="4.5" y="8" width="15" height="11.5" rx="2.2"/><path d="M12 8V5.2"/><circle cx="12" cy="3.6" r="1.6"/><path d="M9.6 13h.01M14.4 13h.01"/><path d="M10 16.4h4"/></symbol>

  <!-- generic UI -->
  <symbol id="i-arrow" viewBox="0 0 24 24"><path d="M5 12h13M13 7l5 5-5 5"/></symbol>
  <symbol id="i-chevron" viewBox="0 0 24 24"><path d="M6 9.5l6 6 6-6"/></symbol>
  <symbol id="i-user" viewBox="0 0 24 24"><circle cx="12" cy="8" r="3.6"/><path d="M5.5 20a6.5 6.5 0 0 1 13 0"/></symbol>
  <symbol id="i-logout" viewBox="0 0 24 24"><path d="M15 4H6a2 2 0 0 0-2 2v12a2 2 0 0 0 2 2h9"/><path d="M10 12h10"/><path d="M16.5 8.5 20 12l-3.5 3.5"/></symbol>
  <symbol id="i-lock" viewBox="0 0 24 24"><rect x="5" y="10.5" width="14" height="9.5" rx="2"/><path d="M8 10.5V7.5a4 4 0 0 1 8 0v3"/></symbol>
  <symbol id="i-mail" viewBox="0 0 24 24"><rect x="3.5" y="5.5" width="17" height="13" rx="2"/><path d="M4 7l8 6 8-6"/></symbol>

  <!-- action icons (Tier 0 — for tool/admin/editor pages) -->
  <symbol id="i-download" viewBox="0 0 24 24"><path d="M12 3v12"/><path d="M7.5 11 12 15.5 16.5 11"/><path d="M4.5 20h15"/></symbol>
  <symbol id="i-upload" viewBox="0 0 24 24"><path d="M12 20V8"/><path d="M7.5 12 12 7.5 16.5 12"/><path d="M4.5 4h15"/></symbol>
  <symbol id="i-play" viewBox="0 0 24 24"><path d="M7 4.5 19 12 7 19.5z"/></symbol>
  <symbol id="i-refresh" viewBox="0 0 24 24"><path d="M20 11a8 8 0 0 0-13.7-4.7L4 8"/><path d="M4 4v4h4"/><path d="M4 13a8 8 0 0 0 13.7 4.7L20 16"/><path d="M20 20v-4h-4"/></symbol>
  <symbol id="i-folder" viewBox="0 0 24 24"><path d="M3.5 6.5a1 1 0 0 1 1-1H9l2 2.2h8.5a1 1 0 0 1 1 1v9.3a1 1 0 0 1-1 1h-15a1 1 0 0 1-1-1z"/></symbol>
  <symbol id="i-file" viewBox="0 0 24 24"><path d="M14 3H7a2 2 0 0 0-2 2v14a2 2 0 0 0 2 2h10a2 2 0 0 0 2-2V8z"/><path d="M14 3v5h5"/></symbol>
  <symbol id="i-info" viewBox="0 0 24 24"><circle cx="12" cy="12" r="9"/><path d="M12 11v5"/><path d="M12 7.6h.01"/></symbol>
  <symbol id="i-warning" viewBox="0 0 24 24"><path d="M12 3.5 21.5 20H2.5z"/><path d="M12 10v4.5"/><path d="M12 17.6h.01"/></symbol>
  <symbol id="i-close" viewBox="0 0 24 24"><path d="M6 6l12 12M18 6 6 18"/></symbol>
  <symbol id="i-filter" viewBox="0 0 24 24"><path d="M3.5 5.5h17l-6.5 8v5l-4 2v-7z"/></symbol>
  <symbol id="i-image" viewBox="0 0 24 24"><rect x="3.5" y="4.5" width="17" height="15" rx="2"/><circle cx="8.5" cy="9.5" r="1.8"/><path d="M4 17l5-4.5 4 3.5 3-2.5 4 3.5"/></symbol>
  <symbol id="i-webcam" viewBox="0 0 24 24"><circle cx="12" cy="10" r="6.5"/><circle cx="12" cy="10" r="2.3"/><path d="M7 20h10M12 16.5V20"/></symbol>
  <symbol id="i-rotate" viewBox="0 0 24 24"><path d="M4 9a8 8 0 1 1-.6 5"/><path d="M4 4v5h5"/></symbol>
  <symbol id="i-plus" viewBox="0 0 24 24"><path d="M12 5v14M5 12h14"/></symbol>
  <symbol id="i-trash" viewBox="0 0 24 24"><path d="M4.5 6.5h15"/><path d="M9 6.5V4.8a1 1 0 0 1 1-1h4a1 1 0 0 1 1 1v1.7"/><path d="M6.5 6.5 7.4 19a1 1 0 0 0 1 .9h7.2a1 1 0 0 0 1-.9l.9-12.5"/><path d="M10 10.5v6M14 10.5v6"/></symbol>
  <symbol id="i-edit" viewBox="0 0 24 24"><path d="M5 19h3l9.5-9.5a2 2 0 0 0-2.8-2.8L5 16z"/><path d="M14 7.5 16.5 10"/></symbol>
  <symbol id="i-save" viewBox="0 0 24 24"><path d="M5 5h11l3 3v11a1 1 0 0 1-1 1H6a1 1 0 0 1-1-1z"/><path d="M8 5v5h7V5"/><rect x="8.5" y="13.5" width="7" height="5"/></symbol>
  <symbol id="i-check" viewBox="0 0 24 24"><path d="M5 12.5 10 17.5 19.5 7"/></symbol>
  <symbol id="i-external" viewBox="0 0 24 24"><path d="M14 5h5v5"/><path d="M19 5l-8 8"/><path d="M18 13.5V18a2 2 0 0 1-2 2H6a2 2 0 0 1-2-2V8a2 2 0 0 1 2-2h4.5"/></symbol>
  <symbol id="i-help" viewBox="0 0 24 24"><circle cx="12" cy="12" r="9"/><path d="M9.4 9.3a2.6 2.6 0 0 1 5 .9c0 1.7-2.4 2.1-2.4 3.8"/><path d="M12 17.3h.01"/></symbol>
  <symbol id="i-menu" viewBox="0 0 24 24"><path d="M4 7h16M4 12h16M4 17h16"/></symbol>
  <symbol id="i-dots" viewBox="0 0 24 24"><circle cx="5.5" cy="12" r="1.4"/><circle cx="12" cy="12" r="1.4"/><circle cx="18.5" cy="12" r="1.4"/></symbol>
  <symbol id="i-clock" viewBox="0 0 24 24"><circle cx="12" cy="12" r="8.5"/><path d="M12 7.5V12l3 2"/></symbol>
  <symbol id="i-tag" viewBox="0 0 24 24"><path d="M4 4h7l9 9-7 7-9-9z"/><circle cx="8" cy="8" r="1.4"/></symbol>
  <symbol id="i-link" viewBox="0 0 24 24"><path d="M10 14a4 4 0 0 0 5.7 0l3-3a4 4 0 0 0-5.7-5.7L11.5 7"/><path d="M14 10a4 4 0 0 0-5.7 0l-3 3a4 4 0 0 0 5.7 5.7L12.5 17"/></symbol>
  <symbol id="i-palette" viewBox="0 0 24 24"><path d="M12 3.5a8.5 8.5 0 0 0 0 17c1.4 0 1.8-1 1.3-1.9-.6-1 .1-2.1 1.2-2.1H17a4 4 0 0 0 4-4c0-4.7-4-9-9-9z"/><circle cx="8" cy="9" r="1"/><circle cx="12" cy="7" r="1"/><circle cx="16" cy="9" r="1"/></symbol>
</svg>
